<svg xmlns="http://www.w3.org/2000/svg" viewBox="0 0 16 16">
  <defs>
    <style>.canvas{fill: none; opacity: 0;}.light-defaultgrey-10{fill: #212121; opacity: 0.1;}.light-defaultgrey{fill: #212121; opacity: 1;}.cls-1{opacity:0.75;}</style>
  </defs>
  <title>IconLightScalarFunction</title>
  <g id="canvas">
    <path class="canvas" d="M16,16H0V0H16Z" />
    <path class="canvas" d="M16,16H0V0H16Z" />
  </g>
  <g id="level-1">
    <g class="cls-1">
      <path class="light-defaultgrey-10" d="M5.5.5V7.132a1.534,1.534,0,0,1,.751.509,1.362,1.362,0,0,1,.262.859H14.5V.5Z" />
      <path class="light-defaultgrey" d="M14.5,0h-9L5,.5V7.016c.083.007.165.008.249.023A1.592,1.592,0,0,1,6,7.415V1h8V8H6.431a1.386,1.386,0,0,1,.083.5,1.447,1.447,0,0,1-.1.5H14.5l.5-.5V.5Z" />
    </g>
    <path class="light-defaultgrey" d="M12.617,2.037V6.956h-.778V2.99a2.439,2.439,0,0,1-.455.257,3.83,3.83,0,0,1-.555.186V2.769c.13-.043.255-.088.376-.135s.24-.1.358-.157.236-.124.356-.2.242-.152.371-.244ZM10.3,4.531A3.254,3.254,0,0,1,9.848,6.4a1.445,1.445,0,0,1-1.254.642,1.345,1.345,0,0,1-1.173-.614A3.129,3.129,0,0,1,7,4.648a3.466,3.466,0,0,1,.44-1.929,1.429,1.429,0,0,1,1.268-.655Q10.3,2.064,10.3,4.531ZM9.5,4.584q0-1.9-.829-1.9-.876,0-.876,1.93,0,1.8.859,1.806T9.5,4.584Z" />
    <path class="light-defaultgrey" d="M7.915,11.058a1.627,1.627,0,0,1-.513-.112,5.056,5.056,0,0,0-.88,1.166c.112.457.119.554.273,1.067a1.087,1.087,0,0,0,.384.571.576.576,0,0,0,.348.1,1.507,1.507,0,0,0,.268-.022.935.935,0,0,0,.263-.067l-.071.263a2.757,2.757,0,0,1-.728.246c-.46.068-.782.006-.947-.433A9.08,9.08,0,0,1,6,12.741a8.6,8.6,0,0,1-.889,1.21.912.912,0,0,1-.687.339.448.448,0,0,1-.308-.107.443.443,0,0,1-.081-.5.451.451,0,0,1,.295-.233c.357-.081.391.017.714.1a5.17,5.17,0,0,0,.866-1.138c-.031-.156-.046-.2-.138-.581-.051-.207-.122-.422-.206-.665a1.267,1.267,0,0,0-.116-.254.679.679,0,0,0-.121-.164c-.072-.063-.164-.115-.633-.1-.359.01-1.255.017-1.255.017l-.709,3.317c-.235,1.075-1.209,2.2-2.282,2a.577.577,0,0,1-.379-.219.465.465,0,0,1,.04-.536.416.416,0,0,1,.5-.08.8.8,0,0,1,.29.295c.09.144.1.159.143.232a.461.461,0,0,0,.259-.1,1.81,1.81,0,0,0,.5-.857c.136-.471.049-.105.9-4.053H1.906L2,10.3h.772A3.486,3.486,0,0,1,3.062,9.3,1.986,1.986,0,0,1,5.067,8.022a.6.6,0,0,1,.384.219.356.356,0,0,1,.062.232.49.49,0,0,1-.1.313.461.461,0,0,1-.54.076c-.179-.1-.242-.277-.4-.532-.362.02-.579.477-.7.822a7.135,7.135,0,0,0-.21.839c-.029.131-.049.234-.058.308,1.082-.019,1.318-.053,1.942-.089a.685.685,0,0,1,.7.495,7.515,7.515,0,0,1,.285,1.067v.014l0,.013c.394-.622.837-1.589,1.585-1.607C8.561,10.179,8.649,11.042,7.915,11.058Z" />
  </g>
</svg>
