<svg xmlns="http://www.w3.org/2000/svg" viewBox="0 0 16 16">
  <defs>
    <style>.canvas{fill: none; opacity: 0;}.light-defaultgrey{fill: #212121; opacity: 1;}.light-defaultgrey-10{fill: #212121; opacity: 0.1;}</style>
  </defs>
  <title>IconLightTableFunction</title>
  <g id="canvas" class="canvas">
    <path class="canvas" d="M16,16H0V0H16Z" />
  </g>
  <g id="level-1">
    <path class="light-defaultgrey" d="M8.446,10.6a.411.411,0,0,1-.044.2.465.465,0,0,1-.116.143.453.453,0,0,1-.17.085.9.9,0,0,1-.2.031,1.077,1.077,0,0,1-.259-.036,2.628,2.628,0,0,1-.254-.076,1.82,1.82,0,0,0-.237.237c-.083.1-.164.2-.241.308s-.152.217-.223.33-.131.21-.179.291c.03.122.058.242.085.361s.057.24.089.362.063.225.1.344a1.194,1.194,0,0,0,.151.325.945.945,0,0,0,.233.246.576.576,0,0,0,.348.1c.035,0,.077,0,.125,0a1.189,1.189,0,0,0,.143-.018l.142-.027a.409.409,0,0,0,.121-.04l-.071.263-.25.107a2.312,2.312,0,0,1-.237.085,1.738,1.738,0,0,1-.241.054,2.36,2.36,0,0,1-.277.022.834.834,0,0,1-.321-.053.539.539,0,0,1-.21-.157.842.842,0,0,1-.139-.245c-.035-.1-.071-.2-.107-.313-.041-.131-.079-.26-.111-.388s-.066-.259-.1-.393q-.171.268-.34.513t-.37.492c-.06.071-.119.139-.179.205a1.313,1.313,0,0,1-.192.174.857.857,0,0,1-.228.121.8.8,0,0,1-.267.044.448.448,0,0,1-.308-.107.4.4,0,0,1-.125-.3.419.419,0,0,1,.044-.2.478.478,0,0,1,.121-.148.417.417,0,0,1,.174-.085,1.628,1.628,0,0,1,.205-.031.685.685,0,0,1,.255.049,2.1,2.1,0,0,0,.254.085,5.377,5.377,0,0,0,.473-.54,4.967,4.967,0,0,0,.393-.6L5.9,12.366c-.012-.056-.029-.132-.053-.228s-.049-.2-.076-.308-.06-.224-.1-.343-.075-.227-.108-.322a1.267,1.267,0,0,0-.116-.254.679.679,0,0,0-.121-.164c-.072-.063-.164-.115-.633-.1-.359.01-1.255.017-1.255.017l-.709,3.317a2.921,2.921,0,0,1-.259.705,3.089,3.089,0,0,1-.447.652,2.209,2.209,0,0,1-.607.478A1.573,1.573,0,0,1,.683,16a1.3,1.3,0,0,1-.237-.022A.722.722,0,0,1,.228,15.9a.473.473,0,0,1-.161-.143A.419.419,0,0,1,0,15.527a.455.455,0,0,1,.107-.3.387.387,0,0,1,.3-.129.4.4,0,0,1,.2.049.646.646,0,0,1,.161.125,1.013,1.013,0,0,1,.129.17c.039.062.076.122.112.178l.031.054a.461.461,0,0,0,.259-.1.9.9,0,0,0,.205-.223,2.16,2.16,0,0,0,.166-.3,2.513,2.513,0,0,0,.125-.335c.032-.113.062-.22.089-.321s.048-.189.062-.264l.746-3.468H1.906L2,10.3h.772l.053-.277A3.161,3.161,0,0,1,3.062,9.3,2.629,2.629,0,0,1,3.5,8.652a2.213,2.213,0,0,1,.593-.469A1.572,1.572,0,0,1,4.83,8a1.283,1.283,0,0,1,.237.022.767.767,0,0,1,.219.076.527.527,0,0,1,.165.143.356.356,0,0,1,.062.232.49.49,0,0,1-.1.313.372.372,0,0,1-.3.129.478.478,0,0,1-.237-.053.536.536,0,0,1-.161-.143,1.535,1.535,0,0,1-.12-.188c-.036-.065-.075-.132-.116-.2a.472.472,0,0,0-.295.125,1.139,1.139,0,0,0-.228.295,2.584,2.584,0,0,0-.174.4,3.775,3.775,0,0,0-.12.433c-.03.14-.06.275-.09.406s-.049.234-.058.308c0,0,.973-.017,1.446-.057.114-.01.5-.032.5-.032a.758.758,0,0,1,.326.062A.664.664,0,0,1,6,10.446a.857.857,0,0,1,.148.259c.035.1.071.2.107.317s.062.234.089.353.054.24.081.362l.008.035v.014l0,.013c.057-.089.117-.19.183-.3s.137-.23.214-.349.16-.235.246-.348a2.3,2.3,0,0,1,.281-.308,1.246,1.246,0,0,1,.313-.214.9.9,0,0,1,.348-.085.411.411,0,0,1,.419.411Z" />
    <path class="light-defaultgrey-10" d="M14.5,2.5v11H9.163L9.569,12H9v-.364a1.382,1.382,0,0,0,.446-1.058,1.418,1.418,0,0,0-.431-.99,1.442,1.442,0,0,0-1.031-.395h0a1.954,1.954,0,0,0-.728.179,2.254,2.254,0,0,0-.54.363,1.7,1.7,0,0,0-.488-.36A1.468,1.468,0,0,0,6.514,8.5a1.37,1.37,0,0,0-.264-.865,1.524,1.524,0,0,0-.485-.419,1.718,1.718,0,0,0-.514-.18A2.281,2.281,0,0,0,4.82,7h0a2.578,2.578,0,0,0-1.207.3,3.293,3.293,0,0,0-.859.677,3.639,3.639,0,0,0-.253.326V2.5Z" />
    <path class="light-defaultgrey" d="M14.5,2H2.5L2,2.5V9.263c.047-.129.1-.257.157-.385a3.717,3.717,0,0,1,.6-.9A3.293,3.293,0,0,1,3.612,7.3,2.578,2.578,0,0,1,4.819,7H3V5H6V7H4.82a2.281,2.281,0,0,1,.431.04,1.718,1.718,0,0,1,.514.18,1.524,1.524,0,0,1,.485.419,1.37,1.37,0,0,1,.264.865,1.468,1.468,0,0,1-.291.871,1.7,1.7,0,0,1,.488.36A2.177,2.177,0,0,1,7,9.541V8h3v2H9.3a1.415,1.415,0,0,1,.146.578A1.519,1.519,0,0,1,9.385,11H10v2H9.3l-.271,1H14.5l.5-.5V2.5ZM10,7H7V5h3Zm4,6H11V11h3Zm0-3H11V8h3Zm0-3H11V5h3Zm0-3H3V3H14Z" />
  </g>
</svg>
